Coordinates
version=1
nRows=16
nColumns=42
inDegrees=yes

Units are S.I. units (second, meters, Newtons, ...)
If the header above contains a line with 'inDegrees', this indicates whether rotational values are in degrees (yes) or radians (no).

endheader
time	pelvis_tilt	pelvis_list	pelvis_rotation	pelvis_tx	pelvis_ty	pelvis_tz	hip_flexion_r	hip_adduction_r	hip_rotation_r	knee_angle_r	knee_adduction_r	knee_angle_r_beta	ankle_angle_r	subtalar_angle_r	mtp_angle_r	hip_flexion_l	hip_adduction_l	hip_rotation_l	knee_angle_l	knee_adduction_l	knee_angle_l_beta	ankle_angle_l	subtalar_angle_l	mtp_angle_l	lumbar_extension	lumbar_bending	lumbar_rotation	arm_flex_r	arm_add_r	arm_rot_r	elbow_flex_r	pro_sup_r	wrist_flex_r	wrist_dev_r	arm_flex_l	arm_add_l	arm_rot_l	elbow_flex_l	pro_sup_l	wrist_flex_l	wrist_dev_l
      1.19000000	      2.29340263	     -0.77578179	     -2.93900471	     -1.85919203	      0.85589073	      0.22572802	      5.85201295	      7.58329555	    -39.32714143	     25.46695292	    -21.00986951	      0.44448218	     29.43023799	     33.92837805	     -7.53109548	     34.40594420	      0.77264554	    -11.01189107	     39.88051043	     -8.61884443	      0.69604621	      7.27089228	    -12.00589351	     -7.53109548	    -21.62543324	      0.43966494	      7.59106169	     20.75573960	    -19.20624426	     18.33796756	     46.78205834	     90.00000001	      0.00000000	      0.00000000	     -5.34544003	    -10.81779033	      9.23985405	     30.19328844	     90.00000001	      0.00000000	      0.00000000
      1.20000000	      2.38459579	     -0.99231857	     -3.03082798	     -1.84794801	      0.85435556	      0.22607908	      4.83113056	      7.83473047	    -39.33359767	     25.41772414	    -21.06468138	      0.44362297	     29.97614609	     33.74651317	     -7.52998042	     34.37366555	      0.75848415	    -11.91197915	     36.31232091	     -9.09513985	      0.63376956	      7.10541151	    -10.40585125	     -7.52998042	    -21.71433855	      0.69204464	      7.67834565	     21.30262086	    -19.28483433	     18.39221818	     47.10505258	     90.00000001	      0.00000000	      0.00000000	     -5.97371468	    -10.56410205	      8.90403482	     30.03317582	     90.00000001	      0.00000000	      0.00000000
      1.21000000	      2.46031525	     -1.24696917	     -3.13369517	     -1.83654292	      0.85264161	      0.22645432	      3.82500827	      8.15047951	    -39.36141498	     25.32863075	    -21.18843698	      0.44206800	     30.46126703	     33.88631591	     -7.52738782	     34.47769947	      0.53292640	    -13.85216253	     33.04397236	     -9.86228788	      0.57672612	      8.06561274	     -6.18753064	     -7.52738782	    -21.75734244	      0.96453302	      7.79403647	     21.75262415	    -19.41632252	     18.64883575	     47.39655765	     90.00000001	      0.00000000	      0.00000000	     -6.53025100	    -10.19108663	      8.09467978	     29.80889267	     90.00000001	      0.00000000	      0.00000000
      1.22000000	      2.50667896	     -1.48858523	     -3.20018335	     -1.82516253	      0.85083581	      0.22671197	      2.89277806	      8.43078127	    -39.37849969	     25.34471441	    -21.30939527	      0.44234871	     30.97788129	     33.79459276	     -7.52537048	     34.59530782	      0.37892317	    -15.38688661	     30.05559555	    -10.31624964	      0.52456910	      8.42467444	     -2.69233693	     -7.52537048	    -21.77835481	      1.23636648	      7.87086579	     22.17312421	    -19.45169843	     18.66024469	     47.62281750	     90.00000001	      0.00000000	      0.00000000	     -7.02963185	     -9.92390265	      7.72530854	     29.60379744	     90.00000001	      0.00000000	      0.00000000
      1.23000000	      2.41607321	     -1.68677235	     -3.24845181	     -1.81387463	      0.84885578	      0.22688550	      2.17787789	      8.71192366	    -39.39462645	     25.36390696	    -21.56992327	      0.44268369	     31.18973828	     33.70004001	     -7.52511625	     34.76913705	      0.41199441	    -15.90085779	     27.39299996	    -10.35470170	      0.47809804	      8.25257415	     -1.91326184	     -7.52511625	    -21.65115107	      1.46112077	      7.93674680	     22.49155125	    -19.45208638	     18.61292458	     47.77769058	     90.00000001	      0.00000000	      0.00000000	     -7.45695731	     -9.75655424	      7.73196846	     29.42930882	     90.00000001	      0.00000000	      0.00000000
      1.24000000	      2.58580256	     -1.92073857	     -3.32805924	     -1.80209929	      0.84716448	      0.22703995	      1.07939793	      8.85695174	    -39.40832762	     25.50271172	    -21.54671170	      0.44510629	     31.67475838	     33.74175324	     -7.52295499	     34.91690229	      0.06806556	    -18.51672127	     25.30554841	    -10.92688990	      0.44166514	      9.37071480	      4.59122715	     -7.52295499	    -21.77523460	      1.70852944	      8.05298412	     22.79907471	    -19.42474343	     18.38292489	     47.88246899	     90.00000001	      0.00000000	      0.00000000	     -7.76309250	     -9.54363009	      7.65036683	     29.05252985	     90.00000001	      0.00000000	      0.00000000
      1.25000000	      2.53523905	     -2.05681128	     -3.38488129	     -1.79055900	      0.84528337	      0.22704757	      0.35581681	      8.96303758	    -39.42183168	     25.70046294	    -21.75217751	      0.44855770	     31.84857377	     33.70626099	     -7.52266714	     35.04828726	      0.18156793	    -18.82515610	     23.51494571	    -10.86764443	      0.41041323	      9.15745802	      5.43553449	     -7.52266714	    -21.69171894	      1.84906530	      8.12118202	     22.99863941	    -19.41834817	     18.31726255	     47.97772018	     90.00000001	      0.00000000	      0.00000000	     -8.05951325	     -9.43396971	      7.68540963	     28.89943411	     90.00000001	      0.00000000	      0.00000000
      1.26000000	      2.61020582	     -2.18516991	     -3.44047398	     -1.77869720	      0.84357564	      0.22694346	     -0.53720115	      8.90016845	    -39.42695432	     26.07955631	    -21.71862052	      0.45517413	     32.22330681	     33.70121745	     -7.52192403	     35.09448019	      0.21885573	    -19.53767372	     22.25486154	    -10.92106199	      0.38842061	      9.11686769	      8.06477951	     -7.52192403	    -21.71314990	      1.99086877	      8.18273498	     23.15974006	    -19.38486131	     18.05144648	     48.01299083	     90.00000001	      0.00000000	      0.00000000	     -8.22243891	     -9.25142818	      7.82442284	     28.56466155	     90.00000001	      0.00000000	      0.00000000
      1.27000000	      2.65477144	     -2.29340473	     -3.57367504	     -1.76659660	      0.84178023	      0.22697915	     -1.34333778	      8.92816577	    -39.43102358	     26.37485491	    -22.01493552	      0.46032806	     32.36756395	     33.78178050	     -7.52047160	     35.35799070	      0.08239621	    -21.06867289	     21.76092850	    -11.20043678	      0.37979985	      9.94005989	     11.63947149	     -7.52047160	    -21.67524373	      2.05773251	      8.33467804	     23.14522917	    -19.25941036	     17.49620384	     48.04006883	     90.00000001	      0.00000000	      0.00000000	     -8.32640710	     -9.19239384	      8.11812093	     28.18798645	     90.00000001	      0.00000000	      0.00000000
      1.28000000	      2.63215350	     -2.36930356	     -3.67450717	     -1.75446685	      0.84000846	      0.22692028	     -2.04236911	      8.91838036	    -39.42310166	     26.70436118	    -22.33640253	      0.46607903	     32.32157511	     33.81988083	     -7.52040367	     35.52701973	      0.20883652	    -20.98903749	     21.69851239	    -11.22477981	      0.37871048	      9.93415022	     11.76207733	     -7.52040367	    -21.58208800	      2.08682048	      8.42130022	     23.11173223	    -19.27465182	     17.46502179	     48.02600475	     90.00000001	      0.00000000	      0.00000000	     -8.48953293	     -9.12351261	      8.14413355	     28.12569955	     90.00000001	      0.00000000	      0.00000000
      1.29000000	      2.68410190	     -2.29452325	     -3.81361543	     -1.74211210	      0.83843255	      0.22665566	     -2.74532144	      8.52359873	    -39.42486049	     27.38309641	    -22.50386933	      0.47792519	     32.32497427	     33.91248001	     -7.51985108	     35.46702572	      0.58091930	    -20.81349040	     21.76273774	    -11.40927979	      0.37983143	      9.98483141	     12.57293117	     -7.51985108	    -21.54984081	      1.94213173	      8.52217304	     22.97941078	    -19.21757103	     17.08419748	     48.03732847	     90.00000001	      0.00000000	      0.00000000	     -8.46788222	     -9.09541847	      8.33826437	     27.90058599	     90.00000001	      0.00000000	      0.00000000
      1.30000000	      2.76358216	     -2.25110855	     -3.90729846	     -1.72952297	      0.83695551	      0.22642700	     -3.51891199	      8.27672365	    -39.41735197	     27.87425403	    -22.80861950	      0.48649751	     32.18644711	     33.97924563	     -7.51975531	     35.42551128	      0.90634130	    -20.41264003	     22.41785404	    -11.60747597	      0.39126536	      9.89085231	     12.74620101	     -7.51975531	    -21.54207610	      1.80248738	      8.57903949	     22.78910988	    -19.22850830	     17.00341026	     47.96494950	     90.00000001	      0.00000000	      0.00000000	     -8.47737172	     -9.08996079	      8.37590885	     27.84599488	     90.00000001	      0.00000000	      0.00000000
      1.31000000	      2.85817239	     -2.13826093	     -3.99490920	     -1.71675044	      0.83562710	      0.22601265	     -4.24952589	      7.82196825	    -39.40704478	     28.59399409	    -23.00839999	      0.49905934	     31.90068636	     34.06993812	     -7.51961829	     35.34556772	      1.31679839	    -19.92495730	     23.38963925	    -11.84367598	      0.40822622	      9.75573027	     12.82127199	     -7.51961829	    -21.53917589	      1.60071312	      8.62598507	     22.53006128	    -19.22631282	     16.83102685	     47.89272583	     90.00000001	      0.00000000	      0.00000000	     -8.40224028	     -9.11783119	      8.43900806	     27.76672266	     90.00000001	      0.00000000	      0.00000000
      1.32000000	      2.95209391	     -1.96670897	     -4.09666240	     -1.70377643	      0.83444301	      0.22554429	     -4.92261261	      7.29560678	    -39.39776475	     29.36467149	    -23.30249154	      0.51251020	     31.49940090	     34.13535961	     -7.51948833	     35.23017964	      1.79711092	    -19.41090432	     24.55153838	    -12.16039395	      0.42850518	      9.52467124	     12.72755323	     -7.51948833	    -21.52074641	      1.30533421	      8.64804182	     22.15295331	    -19.20342696	     16.63473274	     47.79077844	     90.00000001	      0.00000000	      0.00000000	     -8.29859844	     -9.15573394	      8.50701947	     27.68754209	     90.00000001	      0.00000000	      0.00000000
      1.33000000	      2.86669925	     -1.69197351	     -4.15573296	     -1.69091584	      0.83329833	      0.22488383	     -5.21504376	      6.61480153	    -39.37473950	     30.47113716	    -23.64047656	      0.53182167	     30.63121916	     33.88389290	     -7.51759411	     35.18165068	      2.59610255	    -17.56323178	     25.86305756	    -12.13868947	      0.45139551	      8.30649794	      9.07051279	     -7.51759411	    -21.31466542	      0.92415949	      8.73224924	     21.39184005	    -18.64009007	     14.36859979	     47.78175840	     90.00000001	      0.00000000	      0.00000000	     -7.94473927	     -9.32120339	      9.48736587	     27.26733003	     90.00000001	      0.00000000	      0.00000000
      1.34000000	      2.92302342	     -1.36910125	     -4.21658489	     -1.67776202	      0.83249277	      0.22413996	     -5.64873906	      5.84107034	    -39.36523634	     31.56600983	    -24.00642395	      0.55093080	     29.56893295	     33.86845728	     -7.51724210	     35.15782227	      3.21402405	    -17.11309106	     27.41656179	    -12.45542489	      0.47850927	      7.83322000	      8.41170262	     -7.51724210	    -21.24676510	      0.46066269	      8.67106761	     20.89960444	    -18.59849091	     14.21917264	     47.56460617	     90.00000001	      0.00000000	      0.00000000	     -7.74994620	     -9.42091675	      9.60408869	     27.29507265	     90.00000001	      0.00000000	      0.00000000
